<?xml version="1.0" encoding="UTF-8" standalone="no"?>
<!-- Created with Inkscape (http://www.inkscape.org/) -->

<svg
   xmlns:dc="http://purl.org/dc/elements/1.1/"
   xmlns:cc="http://creativecommons.org/ns#"
   xmlns:rdf="http://www.w3.org/1999/02/22-rdf-syntax-ns#"
   xmlns:svg="http://www.w3.org/2000/svg"
   xmlns="http://www.w3.org/2000/svg"
   xmlns:sodipodi="http://sodipodi.sourceforge.net/DTD/sodipodi-0.dtd"
   xmlns:inkscape="http://www.inkscape.org/namespaces/inkscape"
   version="1.1"
   id="svg1108"
   xml:space="preserve"
   width="816"
   height="816"
   viewBox="0 0 816 816"
   sodipodi:docname="dog-graphics-publicdomainvectors.svg"
   inkscape:version="0.92.4 (5da689c313, 2019-01-14)"><metadata
     id="metadata1114"><rdf:RDF><cc:Work
         rdf:about=""><dc:format>image/svg+xml</dc:format><dc:type
           rdf:resource="http://purl.org/dc/dcmitype/StillImage" /><dc:title></dc:title></cc:Work></rdf:RDF></metadata><defs
     id="defs1112"><clipPath
       clipPathUnits="userSpaceOnUse"
       id="clipPath1124"><path
         d="M 0,612 H 612 V 0 H 0 Z"
         id="path1122"
         inkscape:connector-curvature="0" /></clipPath></defs><sodipodi:namedview
     pagecolor="#ffffff"
     bordercolor="#666666"
     borderopacity="1"
     objecttolerance="10"
     gridtolerance="10"
     guidetolerance="10"
     inkscape:pageopacity="0"
     inkscape:pageshadow="2"
     inkscape:window-width="1920"
     inkscape:window-height="1018"
     id="namedview1110"
     showgrid="false"
     inkscape:zoom="0.28921569"
     inkscape:cx="408"
     inkscape:cy="408"
     inkscape:window-x="-8"
     inkscape:window-y="-8"
     inkscape:window-maximized="1"
     inkscape:current-layer="g1116" /><g
     id="g1116"
     inkscape:groupmode="layer"
     inkscape:label="dog-graphics-publicdomainvectors"
     transform="matrix(1.3333333,0,0,-1.3333333,0,816)"><g
       id="g1118"><g
         id="g1120"
         clip-path="url(#clipPath1124)"><path
           d="m 275.764,304.046 c 0,-3.012 -1.458,-5.455 -3.26,-5.455 -1.797,0 -3.255,2.443 -3.255,5.455 0,3.014 1.458,5.456 3.255,5.456 1.802,0 3.26,-2.442 3.26,-5.456 m -30.07,18.845 c 0,3.012 1.458,5.455 3.258,5.455 1.798,0 3.257,-2.443 3.257,-5.455 0,-3.014 -1.459,-5.456 -3.257,-5.456 -1.8,0 -3.258,2.442 -3.258,5.456 m -23.555,18.843 c 0,3.013 1.46,5.454 3.258,5.454 1.799,0 3.257,-2.441 3.257,-5.454 0,-3.012 -1.458,-5.455 -3.257,-5.455 -1.798,0 -3.258,2.443 -3.258,5.455 m -23.553,18.845 c 0,3.011 1.458,5.452 3.256,5.452 1.799,0 3.257,-2.441 3.257,-5.452 0,-3.014 -1.458,-5.456 -3.257,-5.456 -1.798,0 -3.256,2.442 -3.256,5.456 m 58.333,-70.663 c 0,-3.016 -1.458,-5.459 -3.257,-5.459 -1.799,0 -3.257,2.443 -3.257,5.459 0,3.009 1.458,5.452 3.257,5.452 1.799,0 3.257,-2.443 3.257,-5.452 m -26.813,24.295 c 1.8,0 3.259,-2.442 3.259,-5.453 0,-3.013 -1.459,-5.456 -3.259,-5.456 -1.796,0 -3.256,2.443 -3.256,5.456 0,3.011 1.46,5.453 3.256,5.453 m -23.551,18.844 c 1.797,0 3.254,-2.442 3.254,-5.452 0,-3.014 -1.457,-5.457 -3.254,-5.457 -1.8,0 -3.259,2.443 -3.259,5.457 0,3.01 1.459,5.452 3.259,5.452 m -26.813,13.39 c 0,3.013 1.456,5.454 3.257,5.454 1.796,0 3.257,-2.441 3.257,-5.454 0,-3.013 -1.461,-5.455 -3.257,-5.455 -1.801,0 -3.257,2.442 -3.257,5.455 m 55.077,-65.209 c 1.798,0 3.256,-2.444 3.256,-5.455 0,-3.011 -1.458,-5.455 -3.256,-5.455 -1.799,0 -3.257,2.444 -3.257,5.455 0,3.011 1.458,5.455 3.257,5.455 m -23.555,18.843 c 1.799,0 3.257,-2.443 3.257,-5.454 0,-3.013 -1.458,-5.454 -3.257,-5.454 -1.799,0 -3.257,2.441 -3.257,5.454 0,3.011 1.458,5.454 3.257,5.454 m -23.555,18.844 c 1.8,0 3.258,-2.443 3.258,-5.452 0,-3.014 -1.458,-5.459 -3.258,-5.459 -1.798,0 -3.257,2.445 -3.257,5.459 0,3.009 1.459,5.452 3.257,5.452 m -26.812,13.39 c 0,3.011 1.458,5.453 3.257,5.453 1.8,0 3.257,-2.442 3.257,-5.453 0,-3.013 -1.457,-5.457 -3.257,-5.457 -1.799,0 -3.257,2.444 -3.257,5.457 m 151.508,101.129 c -8.386,4.709 -28.112,-5.267 -39.301,-1.732 7.941,4.381 20.237,21.941 -14.846,16.909 16.88,12.76 54.291,-1.634 54.147,-15.177 m 66.39,18.057 c 5.632,1.933 11.222,4.251 16.066,6.937 -0.048,-0.408 -0.143,-1.192 -0.281,-2.295 -0.05,-0.407 -0.105,-0.851 -0.166,-1.339 -0.188,-0.458 -0.39,-0.955 -0.605,-1.484 -0.409,-1.054 -0.849,-2.211 -1.772,-3.262 -0.4,-0.538 -0.815,-1.099 -1.247,-1.679 -0.543,-0.495 -1.105,-1.003 -1.684,-1.525 -1.04,-1.111 -2.562,-1.902 -3.924,-2.848 -1.45,-0.86 -3.069,-1.606 -4.669,-2.346 -1.718,-0.605 -3.331,-1.369 -5.13,-1.822 -3.47,-1.107 -7.085,-1.823 -10.458,-2.35 -3.377,-0.519 -6.542,-0.761 -9.183,-0.831 -0.383,0.007 -0.761,0.005 -1.132,0.002 -0.839,2.782 -1.885,5.386 -3.108,7.825 7.799,1.362 17.669,3.693 27.293,7.017 m 6.217,-15.383 c -0.107,-0.95 -0.364,-2.069 -0.82,-3.282 -0.464,-1.208 -1.168,-2.477 -2.088,-3.73 -0.99,-1.208 -2.143,-2.426 -3.593,-3.477 -1.375,-1.106 -3.064,-2.009 -4.793,-2.887 -3.53,-1.693 -7.601,-2.892 -11.734,-3.766 -1.664,-0.342 -3.34,-0.612 -5.01,-0.849 0.044,2.274 -0.022,4.462 -0.185,6.568 0.234,0.056 0.463,0.113 0.707,0.165 3.046,0.804 6.468,1.893 10.016,3.32 3.542,1.435 7.24,3.112 10.75,5.204 1.79,0.931 3.446,2.212 5.111,3.291 0.604,0.468 1.19,0.935 1.775,1.406 -0.013,-0.502 0.037,-1.16 -0.136,-1.963 M 262.887,384.415 c 7.164,-13.197 16.478,-30.947 25.04,-49.051 8.567,-18.091 16.364,-36.573 20.555,-50.956 1.042,-3.595 1.849,-6.926 2.453,-9.905 0.551,-2.986 0.878,-5.613 0.989,-7.793 0.009,-2.163 0.041,-3.913 -0.244,-5.049 -0.203,-1.162 -0.31,-1.784 -0.31,-1.784 0,0 0.181,0.605 0.517,1.739 0.423,1.123 0.597,2.866 0.845,5.079 0.148,2.228 0.134,4.933 -0.072,8.036 -0.259,3.09 -0.678,6.568 -1.306,10.332 -2.537,15.065 -8.208,34.612 -14.692,53.822 -3.168,9.417 -6.527,18.759 -9.793,27.504 14.299,1.418 48.788,-1.786 49.626,-65.442 9.224,32.796 7.712,65.376 10.129,85.803 2.973,1.25 5.993,2.69 8.926,4.346 3.621,2.067 7.112,4.405 10.015,7.09 2.907,2.666 5.226,5.648 6.528,8.533 0.627,1.464 1.031,2.843 1.256,4.086 0.184,1.258 0.244,2.335 0.171,3.225 0.023,0.883 -0.203,1.563 -0.245,2.025 -0.078,0.456 -0.12,0.7 -0.12,0.7 0,0 -0.012,-0.249 -0.041,-0.714 -0.054,-0.461 0.014,-1.14 -0.202,-1.975 -0.115,-0.845 -0.404,-1.828 -0.819,-2.906 -0.456,-1.068 -1.091,-2.196 -1.905,-3.324 -3.381,-4.542 -10.221,-8.156 -17.45,-10.255 -1.442,-0.434 -2.898,-0.807 -4.354,-1.144 1.519,5.557 3.845,9.35 7.653,10.8 0.108,0.716 0.189,1.412 0.276,2.113 2.605,0.843 5.231,1.793 7.822,2.892 4.26,1.842 8.409,4.03 11.928,6.695 1.739,1.367 3.377,2.735 4.697,4.306 1.372,1.498 2.412,3.15 3.231,4.711 0.749,1.611 1.224,3.153 1.462,4.544 0.225,1.398 0.249,2.604 0.166,3.595 0.009,0.918 -0.212,1.625 -0.284,2.133 0.9,0.726 1.776,1.463 2.584,2.241 1.32,1.441 2.701,2.644 3.639,4.206 0.496,0.728 0.979,1.433 1.45,2.117 0.336,0.766 0.662,1.507 0.974,2.218 0.714,1.362 0.919,2.768 1.091,3.988 0.092,0.597 0.179,1.157 0.262,1.675 -0.056,0.524 -0.102,1.003 -0.147,1.44 -0.124,1.16 -0.211,1.968 -0.254,2.366 3.685,2.05 6.937,4.312 9.436,6.784 1.402,1.458 2.568,2.924 3.327,4.389 0.782,1.446 1.191,2.843 1.342,3.986 0.171,1.156 0.129,2.047 0.011,2.657 -0.067,0.601 -0.102,0.92 -0.102,0.92 0,0 -0.018,-0.322 -0.055,-0.927 0.013,-0.603 -0.102,-1.469 -0.447,-2.516 -0.326,-1.04 -0.921,-2.239 -1.844,-3.415 -0.907,-1.191 -2.182,-2.324 -3.663,-3.412 -6.113,-4.27 -15.977,-7.012 -25.888,-8.598 -9.932,-1.613 -20.056,-2.184 -27.482,-2.144 -2.557,0.008 -4.792,0.096 -6.547,0.229 -23.7,24.725 -69.857,24.829 -76.434,31.382 -9.45,9.421 26.197,13.897 44.254,0.547 -34.847,41.682 -76.425,19.322 -89.734,1.95 -0.62,3.663 -1.235,7.402 -2.193,10.962 -0.46,2.085 -1.264,4.111 -1.956,5.969 -0.929,1.82 -1.661,3.584 -2.822,4.955 -1.092,1.399 -2.073,2.638 -3.319,3.452 -1.127,0.9 -2.047,1.623 -2.968,1.924 -1.753,0.782 -2.751,1.228 -2.751,1.228 0,0 0.844,-0.697 2.319,-1.916 0.824,-0.536 1.496,-1.491 2.202,-2.497 0.825,-0.901 1.368,-2.233 1.953,-3.628 0.639,-1.346 0.832,-3.069 1.186,-4.716 0.135,-1.778 0.35,-3.559 0.245,-5.54 -0.025,-3.864 -0.548,-8.105 -0.977,-12.491 -0.477,-4.356 -0.786,-8.989 -0.672,-13.542 0.176,-2.323 0.232,-4.568 0.764,-6.821 0.232,-1.115 0.397,-2.209 0.69,-3.269 0.359,-1.015 0.702,-1.993 1.034,-2.939 -1.976,-12.922 -2.798,-24.286 3.309,-29.375 4.691,-3.907 19.889,-14.432 34.259,-27.02 1.578,-2.755 5.847,-10.262 11.476,-20.63 m 250.06,-10.921 c -0.12,-6.445 -0.183,-10.127 -0.183,-10.127 0,0 -0.613,3.631 -1.689,9.984 -0.971,6.348 -2.36,15.412 -4.03,26.292 -0.861,5.415 -1.79,11.282 -2.775,17.493 -1.067,6.173 -2.189,12.686 -3.348,19.42 -1.114,6.736 -2.683,13.599 -4.086,20.585 -1.513,6.961 -3.22,13.98 -5.296,20.84 -1.908,6.919 -4.329,13.612 -7.088,19.964 -2.941,6.225 -6.16,12.15 -10.334,16.858 -4.148,4.693 -9.004,8.277 -14.422,10.265 -5.421,1.961 -11.111,2.751 -16.479,3.167 -5.475,0.304 -10.494,0.584 -14.947,0.831 -4.509,0.268 -8.447,0.759 -11.649,1.329 -3.216,0.573 -5.704,1.233 -7.328,1.773 -1.647,0.516 -2.525,0.792 -2.525,0.792 0,0 0.915,-0.103 2.63,-0.294 1.722,-0.252 4.238,-0.321 7.399,-0.415 3.182,-0.06 7.038,0.13 11.469,0.403 4.438,0.303 9.454,0.82 15.075,0.965 5.598,0.152 11.933,0.019 18.55,-1.899 6.61,-1.855 13.19,-5.845 18.3,-11.294 5.162,-5.42 9.251,-11.858 12.504,-18.655 3.106,-6.844 5.773,-13.94 7.876,-21.133 2.089,-7.206 3.722,-14.481 5.171,-21.65 1.436,-7.168 2.485,-14.28 3.377,-21.148 1.021,-6.862 1.527,-13.538 2.13,-19.847 0.57,-6.313 0.855,-12.298 1.179,-17.81 0.472,-11.04 0.615,-20.244 0.519,-26.689 m -5.483,-88.448 c 8.129,0 14.721,-7.644 14.721,-17.077 0,-9.43 -6.592,-17.077 -14.721,-17.077 -8.129,0 -14.723,7.647 -14.723,17.077 0,9.433 6.594,17.077 14.723,17.077 M 474.487,184.939 c -8.131,0 -14.722,7.646 -14.722,17.078 0,9.431 6.591,17.077 14.722,17.077 8.129,0 14.721,-7.646 14.721,-17.077 0,-9.432 -6.592,-17.078 -14.721,-17.078 M 417.956,137.83 c -6.764,0 -12.403,5.324 -14.129,12.536 l 24.254,16.889 c 2.82,-3.109 4.597,-7.48 4.597,-12.35 0,-9.427 -6.593,-17.075 -14.722,-17.075 m -95.447,-15.912 c -18.095,1.029 -25.186,13.977 -33.404,28.965 -2.396,4.377 -4.829,8.797 -7.577,12.895 5.973,1.847 11.778,4.844 17.385,8.989 8.417,6.224 16.404,12.347 24.015,18.186 33.165,25.449 59.35,45.513 79.285,40.769 11.662,-2.792 24.663,4.113 37.654,19.969 23.551,28.736 47.346,90.225 35.089,144.283 0.887,0.423 1.729,0.915 2.475,1.547 2.267,1.918 4.343,3.886 6.235,5.729 18.445,-61.613 -34.449,-207.272 -68.894,-228.551 -13.714,-8.47 -24.815,-17.758 -34.606,-25.957 -19.556,-16.368 -33.702,-28.232 -57.657,-26.824 m -95.103,9.697 -9.397,2.954 c -2.116,-5.382 -19.106,-21.315 -29.625,-21.705 -1.842,-0.064 -3.477,0.156 -5.141,3.612 -8.41,17.445 -30.809,38.291 -50.604,54.442 5.448,2.061 10.185,5.418 13.899,9.882 14.612,-10.007 31.331,-15.739 46.016,-15.739 2.641,0 5.217,0.188 7.701,0.566 9.89,1.51 18.183,5.942 24.339,12.928 10.076,-7.973 20.101,-13.158 30.04,-15.515 7.436,-2.06 12.317,-10.94 17.946,-21.211 1.484,-2.707 3.029,-5.521 4.696,-8.344 z M 102.654,193.7 c -0.692,5.915 -10.708,20.904 -19.907,36.982 0.013,-0.012 0.023,-0.025 0.035,-0.036 l -0.095,0.142 c -2.036,3.564 -4.023,7.172 -5.864,10.748 -1.336,3.645 -1.97,6.85 -2.068,9.652 0.784,15.516 5.359,28.142 25.56,22.526 19.011,-10.665 21.965,-29.923 31.701,-43.428 -2.78,12.621 -2.908,34.791 -7.658,48.076 -1.057,4.446 3.778,5.543 6.08,5.543 15.188,0 22.508,-10.797 26.534,-15.371 7.685,-8.967 15.259,-21.128 20.864,-32.246 l -0.523,-0.32 c 11.122,-18.197 22.264,-33.091 33.369,-44.654 -3.275,-3.863 -7.633,-6.197 -13.271,-7.059 -13.768,-2.084 -32.811,4.986 -47.402,17.629 l -10.255,8.883 -4.745,-12.711 c -3.165,-8.489 -9.824,-10.471 -14.858,-10.637 -4.676,-0.209 -9.519,1.146 -13.591,3.492 -1.455,1.05 -2.763,1.982 -3.906,2.789 m 10.5,218.62 c 0.336,0.082 0.682,0.168 1.024,0.252 0.871,0.219 1.751,0.438 2.649,0.609 1.218,0.14 2.469,0.265 3.729,0.33 2.457,0 4.992,-0.09 7.352,-0.516 0.621,-0.1 1.221,-0.24 1.832,-0.36 1.567,-0.306 3.103,-0.666 4.592,-1.095 2.417,-0.698 4.729,-1.527 6.88,-2.454 3.225,-1.272 6.089,-2.787 8.62,-4.26 0.655,-0.38 1.302,-0.764 1.911,-1.135 2.964,-1.765 5.229,-3.612 6.831,-4.858 1.577,-1.287 2.439,-2.097 2.439,-2.097 0,0 -1.197,0.09 -3.206,0.385 -2.011,0.275 -4.807,0.855 -8.098,1.556 -1.655,0.325 -3.437,0.685 -5.267,1.183 -1.831,0.515 -3.814,0.769 -5.773,1.327 -1.965,0.571 -4.034,0.877 -6.068,1.337 -2.055,0.498 -4.1,0.835 -6.138,1.162 -1.701,0.36 -3.357,0.462 -4.986,0.608 -0.058,-0.206 -0.118,-0.397 -0.175,-0.616 -0.539,-1.631 -0.902,-3.587 -1.385,-5.697 -0.285,-1.059 -0.336,-2.154 -0.522,-3.276 -0.136,-1.122 -0.348,-2.277 -0.435,-3.429 -0.033,-1.152 -0.07,-2.304 -0.106,-3.443 -0.008,-1.14 -0.143,-2.295 0.043,-3.359 0.113,-1.09 0.229,-2.139 0.335,-3.137 0.157,-0.986 0.097,-2.01 0.423,-2.822 1.007,-3.435 1.678,-5.727 1.678,-5.727 0,0 -1.228,2.099 -3.072,5.247 -0.543,0.783 -0.723,1.761 -1.141,2.739 -0.369,1.003 -0.755,2.061 -1.155,3.154 -0.473,1.098 -0.631,2.279 -0.915,3.474 -0.263,1.208 -0.53,2.436 -0.796,3.661 -0.208,1.237 -0.295,2.478 -0.446,3.708 -0.102,1.23 -0.332,2.459 -0.318,3.63 -0.047,1.982 -0.134,3.863 -0.083,5.545 -1.083,-0.226 -2.13,-0.495 -3.115,-0.892 -1.445,-0.644 -2.852,-1.379 -4.127,-2.251 -2.519,-1.787 -4.715,-3.694 -6.325,-4.947 -1.618,-1.229 -2.617,-1.868 -2.617,-1.868 0,0 0.381,1.128 1.145,3.012 0.769,1.86 1.81,4.564 3.98,7.604 1.089,1.515 2.507,3.11 4.357,4.468 1.847,1.362 4.044,2.545 6.449,3.248 M 74.009,190.468 c -5.044,-2.225 -15.077,0.632 -22.502,9.12 -12.804,14.63 -17.293,100.516 -8.841,113.003 16.622,12.708 32.129,31.202 42.915,48.4 3.769,-3.965 8.47,-6.042 12.035,-5.489 10.007,1.557 27.675,11.399 40.22,3.152 12.545,-8.243 35.152,0.59 47.518,15.901 6.501,8.046 3.882,18.208 -5.273,27.524 51.342,-9.333 65.106,-39.44 68.48,-46.667 -13.082,52.804 -66.942,65.558 -103.34,67.555 4.574,3.138 9.363,6.572 13.988,10.276 4.937,3.985 9.699,8.237 13.706,12.707 1.981,2.255 3.846,4.472 5.381,6.772 1.589,2.243 2.858,4.535 3.917,6.677 1.024,2.176 1.742,4.247 2.262,6.106 0.429,1.891 0.749,3.521 0.819,4.897 0.189,1.355 0.073,2.433 0.083,3.154 -0.014,0.721 -0.023,1.105 -0.023,1.105 0,0 -0.064,-0.379 -0.19,-1.092 -0.145,-0.706 -0.233,-1.754 -0.666,-3.023 -0.311,-1.29 -0.929,-2.78 -1.656,-4.446 -0.823,-1.635 -1.849,-3.404 -3.16,-5.2 -1.357,-1.772 -2.892,-3.615 -4.738,-5.374 -1.782,-1.806 -3.887,-3.504 -6.078,-5.199 -4.43,-3.358 -9.564,-6.419 -14.845,-9.219 -10.614,-5.574 -21.854,-9.969 -30.478,-13.583 -3.288,-1.371 -6.207,-2.644 -8.669,-3.862 -15.753,-4.956 -22.808,-19.667 -27.918,-26.51 l -3.294,0.33 c 12.773,22.512 38.946,41.978 54.598,67.121 0.143,0.161 0.283,0.317 0.427,0.479 1.491,1.522 2.447,3.371 3.711,5.214 1.298,1.789 2.094,4.061 3.157,6.166 0.797,2.22 1.661,4.519 2.144,6.846 0.56,2.339 0.948,4.666 1.187,6.955 0.52,4.561 0.635,8.912 1.02,12.764 0.263,1.87 0.493,3.724 1.015,5.304 0.173,0.86 0.476,1.605 0.841,2.287 0.378,0.669 0.56,1.505 1.075,2.017 0.879,1.164 1.713,2.317 2.779,2.995 0.957,0.821 1.863,1.505 2.734,1.844 1.692,0.841 2.663,1.324 2.663,1.324 0,0 -1.072,-0.208 -2.952,-0.57 -0.991,-0.109 -2.086,-0.525 -3.354,-1.113 -1.364,-0.446 -2.627,-1.397 -4.055,-2.508 -0.792,-0.49 -1.249,-1.3 -1.932,-2.004 -0.677,-0.727 -1.293,-1.527 -1.762,-2.418 -1.146,-1.744 -1.956,-3.67 -2.825,-5.678 -1.555,-3.998 -2.839,-8.169 -4.389,-11.978 -0.754,-1.909 -1.609,-3.71 -2.536,-5.353 -0.223,-0.436 -0.463,-0.853 -0.712,-1.257 -0.829,1.063 -1.826,1.987 -2.816,2.913 -1.413,1.031 -2.871,2.113 -4.407,2.73 -1.509,0.774 -3.053,1.195 -4.56,1.641 -6.066,1.408 -11.674,0.997 -15.717,0.21 -2.006,-0.382 -3.692,-0.87 -4.767,-1.243 -1.085,-0.409 -1.703,-0.644 -1.703,-0.644 0,0 0.657,-0.057 1.812,-0.156 1.163,-0.139 2.712,-0.407 4.575,-0.9 3.671,-0.925 8.455,-2.991 11.831,-5.813 0.784,-0.752 1.576,-1.441 2.085,-2.226 0.646,-0.706 0.883,-1.514 1.209,-2.14 0.092,-0.332 0.148,-0.634 0.18,-0.918 -12.884,-4.892 -29.405,-10.553 -44.41,-8.711 0.757,0.708 1.584,1.457 2.49,2.276 2.55,2.302 5.439,4.911 8.295,8.15 12.068,13.681 21.677,47.886 23.769,55.739 6.524,6.95 12.29,9.849 20.35,11.711 8.195,1.893 8.046,12.298 25.127,16.935 18.276,7.913 57.704,15.892 99.561,0.273 l 4.023,-1.502 3.774,2.053 c 43.317,23.567 122.834,4.313 151.844,-21.064 -8.774,-2.276 -18.371,-3.388 -28.763,-1.675 -17.826,2.94 -43.575,4.711 -17.665,-5.889 25.908,-10.6 69.486,-71.253 51.82,-103.64 -6.053,-11.099 12.895,-29.492 30.675,-36.561 6.829,-23.946 4.896,-50.874 -1.618,-75.222 -2.52,4.006 -5.427,8.362 -8.787,12.778 -0.728,1.028 -1.519,2.036 -2.327,3.039 0.338,0.562 0.666,1.126 0.97,1.689 1.371,2.632 2.309,5.26 2.884,7.559 0.22,1.176 0.368,2.258 0.493,3.202 0.192,0.929 0.037,1.807 0.049,2.481 -0.054,1.373 -0.137,2.128 -0.137,2.128 0,0 -0.284,-0.719 -0.786,-1.976 -0.263,-0.614 -0.428,-1.376 -0.875,-2.19 -0.405,-0.814 -0.851,-1.724 -1.283,-2.718 -0.566,-0.947 -1.177,-1.965 -1.753,-3.057 -0.671,-1.058 -1.454,-2.125 -2.139,-3.282 -0.088,-0.118 -0.178,-0.241 -0.267,-0.36 -0.507,0.616 -1.014,1.235 -1.513,1.866 -2.444,2.711 -4.881,5.501 -7.491,8.129 -1.203,1.118 -2.361,2.278 -3.525,3.42 0.807,1.202 1.554,2.421 2.21,3.641 1.371,2.633 2.309,5.259 2.886,7.558 0.219,1.179 0.367,2.259 0.491,3.204 0.193,0.928 0.037,1.807 0.051,2.481 -0.057,1.372 -0.138,2.127 -0.138,2.127 0,0 -0.286,-0.718 -0.788,-1.976 -0.262,-0.615 -0.427,-1.375 -0.873,-2.187 -0.404,-0.818 -0.851,-1.726 -1.284,-2.72 -0.566,-0.949 -1.178,-1.967 -1.754,-3.059 -0.672,-1.055 -1.452,-2.123 -2.138,-3.279 -0.653,-0.881 -1.32,-1.793 -2.006,-2.708 -0.4,0.344 -0.793,0.697 -1.209,1.024 -2.798,2.333 -5.472,4.703 -8.375,6.616 -2.814,2.011 -5.506,3.98 -8.311,5.469 -0.259,0.148 -0.507,0.295 -0.761,0.442 0.22,0.381 0.45,0.76 0.654,1.14 1.371,2.633 2.31,5.261 2.886,7.56 0.22,1.178 0.367,2.259 0.491,3.204 0.194,0.926 0.037,1.805 0.05,2.477 -0.054,1.374 -0.137,2.131 -0.137,2.131 0,0 -0.286,-0.718 -0.788,-1.978 -0.262,-0.613 -0.428,-1.373 -0.873,-2.187 -0.405,-0.816 -0.85,-1.724 -1.284,-2.718 -0.565,-0.95 -1.177,-1.967 -1.753,-3.059 -0.67,-1.057 -1.454,-2.125 -2.139,-3.283 -0.275,-0.372 -0.555,-0.752 -0.836,-1.132 -1.111,0.623 -2.212,1.202 -3.331,1.641 -2.504,1.133 -4.799,2.17 -6.837,3.088 -2.117,0.696 -3.961,1.304 -5.484,1.806 -3.032,0.979 -4.766,1.539 -4.766,1.539 0,0 1.684,-0.698 4.627,-1.921 1.464,-0.616 3.241,-1.361 5.278,-2.219 1.932,-1.071 4.108,-2.276 6.487,-3.588 1.003,-0.492 1.983,-1.11 2.97,-1.767 -1.05,-1.407 -2.144,-2.831 -3.338,-4.196 -1.836,-2.271 -3.815,-4.449 -5.682,-6.498 -1.895,-2.051 -3.672,-3.969 -5.189,-5.61 -3.097,-3.269 -5.153,-5.607 -5.153,-5.607 0,0 2.957,1.041 6.868,3.531 1.952,1.239 4.16,2.808 6.349,4.707 2.236,1.852 4.385,4.104 6.423,6.465 1.229,1.496 2.366,3.072 3.4,4.669 0.226,-0.155 0.445,-0.312 0.675,-0.466 2.612,-1.666 5.089,-3.809 7.665,-5.985 2.659,-2.07 5.074,-4.601 7.595,-7.071 0.472,-0.431 0.918,-0.895 1.366,-1.357 -0.253,-0.304 -0.5,-0.612 -0.762,-0.91 -1.836,-2.272 -3.815,-4.449 -5.682,-6.499 -1.898,-2.052 -3.672,-3.968 -5.191,-5.607 -3.095,-3.273 -5.151,-5.609 -5.151,-5.609 0,0 2.956,1.042 6.868,3.532 1.951,1.236 4.158,2.806 6.349,4.706 2.236,1.854 4.385,4.103 6.422,6.464 0.113,0.136 0.218,0.279 0.327,0.418 0.881,-1.024 1.759,-2.047 2.668,-3.037 2.31,-2.737 4.444,-5.628 6.584,-8.419 0.735,-1.102 1.488,-2.175 2.235,-3.242 -0.422,-0.523 -0.85,-1.042 -1.297,-1.553 -1.835,-2.27 -3.813,-4.447 -5.682,-6.496 -1.895,-2.053 -3.671,-3.969 -5.189,-5.609 -3.095,-3.272 -5.153,-5.608 -5.153,-5.608 0,0 2.958,1.042 6.869,3.531 1.95,1.237 4.157,2.806 6.348,4.705 2.236,1.854 4.385,4.104 6.424,6.466 0.138,0.171 0.268,0.348 0.405,0.519 0.275,-0.431 0.556,-0.86 0.814,-1.296 3.619,-5.643 6.576,-11.167 8.984,-15.938 0.68,-1.375 1.306,-2.682 1.888,-3.926 -6.421,-19.317 -15.521,-36.315 -24.983,-47.861 -9.085,-11.084 -16.171,-14.208 -18.683,-13.591 -22.667,5.435 -45.754,-7.511 -72.795,-27.256 7.709,14.254 18.113,32.115 26.215,51.169 4.569,10.869 8.433,22.102 10.715,32.953 1.095,5.435 2.006,10.714 2.34,15.78 0.462,5.045 0.462,9.846 0.236,14.24 -0.257,4.393 -0.694,8.406 -1.402,11.894 -0.54,3.519 -1.469,6.488 -2.08,8.95 -0.681,2.447 -1.44,4.3 -1.849,5.591 -0.441,1.281 -0.677,1.963 -0.677,1.963 0,0 0.166,-0.703 0.474,-2.026 0.28,-1.328 0.842,-3.231 1.266,-5.717 0.354,-2.498 0.97,-5.488 1.14,-8.985 0.345,-3.472 0.368,-7.417 0.185,-11.681 -0.218,-4.263 -0.69,-8.866 -1.624,-13.652 -0.811,-4.801 -2.205,-9.767 -3.769,-14.823 -3.229,-10.112 -8.005,-20.428 -13.433,-30.375 -10.978,-19.922 -24.741,-38.148 -34.494,-52.962 -2.444,-3.709 -4.647,-7.21 -6.511,-10.494 -1.862,-3.289 -3.431,-6.284 -4.559,-9.063 -0.725,-1.565 -1.428,-3.712 -1.889,-5.279 -5.279,-4.036 -10.725,-8.167 -16.384,-12.35 -8.773,-6.491 -17.684,-8.727 -27.243,-6.873 -0.423,0.083 -0.852,0.176 -1.289,0.277 -0.224,0.058 -0.433,0.133 -0.661,0.188 l -0.005,-0.02 c -11.285,2.836 -27.544,12.32 -47.708,38.672 -15.397,54.168 -81.307,109.226 -103.972,113.758 -23.552,4.712 -63.202,-44.752 -53.779,-65.167 5.657,-12.264 14.148,-30.472 19.517,-46.378 l 3.044,-13.937 0.24,2.843 c 0.89,-3.64 1.478,-6.994 1.677,-9.937 l -0.081,-0.011 c 0.086,-0.746 0.133,-1.535 0.154,-2.326 -0.008,-1.027 -0.073,-1.994 -0.21,-2.882 0,0 0.024,-0.013 0.069,-0.035 -0.336,-2.467 -1.288,-4.662 -3.459,-5.625 m 9.324,253.72 c 7.214,4.955 17.312,-1.846 17.225,-11.264 -5.19,3.276 -14.989,-3.549 -21.911,-1.092 13.911,4.442 18.297,12.356 4.686,12.356 m 504.804,-0.735 c -8.243,89.507 -86.221,68.831 -112.082,112.017 -7.639,12.754 -18.057,10.736 -37.427,-3.357 -30.067,35.82 -122.812,58.533 -176.589,32.703 -41.431,14.271 -76.174,7.497 -98.034,-0.687 -1.821,0.063 -3.434,-0.576 -4.562,-1.705 -0.06,-0.062 -0.158,-0.13 -0.243,-0.195 -1.92,-0.8 -3.714,-1.599 -5.376,-2.381 -12.962,-4.353 -44.368,-10.058 -62.582,-0.69 -19.342,9.946 -17.641,-42.364 -2.377,-60.546 -3.826,-10.445 -8.301,-20.408 -12.406,-25.055 -2.146,-2.439 -4.511,-4.574 -6.793,-6.636 -6.916,-6.252 -15.197,-13.738 -14.152,-28.649 -0.486,0.379 -0.956,0.769 -1.448,1.139 -0.705,0.659 -1.287,1.361 -1.906,2.013 -0.511,0.688 -0.893,1.389 -1.297,2.013 -0.451,0.616 -0.543,1.24 -0.763,1.737 -0.363,1.043 -0.576,1.638 -0.576,1.638 0,0 -0.082,-0.629 -0.225,-1.731 -0.037,-0.556 -0.243,-1.286 -0.12,-2.07 0.077,-0.794 0.11,-1.745 0.28,-2.763 0.272,-0.963 0.529,-2.084 0.941,-3.218 0.492,-1.051 0.955,-2.299 1.627,-3.413 0.686,-1.091 1.367,-2.347 2.222,-3.391 0.217,-0.296 0.45,-0.585 0.674,-0.878 -1.083,-1.378 -2.078,-3.032 -2.564,-4.93 -1.161,0.493 -2.265,1.064 -3.323,1.693 -1.518,1.038 -2.825,2.254 -3.8,3.506 -0.869,1.284 -1.592,2.505 -1.841,3.444 -0.348,0.942 -0.546,1.482 -0.546,1.482 0,0 -0.092,-0.567 -0.258,-1.564 -0.253,-1.037 -0.261,-2.502 -0.111,-4.406 0.267,-1.859 0.894,-4.037 1.98,-6.28 1.154,-2.13 2.649,-4.376 4.422,-6.291 3.411,-3.809 7.491,-6.869 10.761,-8.928 -0.096,-1.23 -0.229,-2.496 -0.391,-3.798 -1.269,0.199 -2.564,0.479 -3.834,0.862 -1.73,0.529 -3.371,1.277 -4.793,2.235 -0.631,0.522 -1.455,0.97 -1.942,1.578 -0.512,0.593 -1.182,1.131 -1.528,1.76 -0.846,1.21 -1.458,2.375 -1.716,3.252 -0.337,0.883 -0.529,1.389 -0.529,1.389 0,0 -0.103,-0.531 -0.28,-1.457 -0.249,-0.965 -0.369,-2.341 -0.266,-4.119 -0.024,-0.907 0.275,-1.807 0.449,-2.857 0.163,-1.073 0.666,-2.027 1.069,-3.159 0.932,-2.145 2.319,-4.301 3.961,-6.214 2.267,-2.66 4.912,-4.909 7.391,-6.694 -2.112,-14.147 -3.5,-31.025 5.246,-49.439 -8.611,-11.819 -19.534,-23.967 -31.6,-33.114 -5.573,-4.221 -8.761,-13.021 -10.344,-28.527 -3.364,-32.943 1.62,-94.251 16.793,-111.598 9.045,-10.336 21.56,-16.237 32.889,-16.237 4.024,0 7.899,0.743 11.414,2.299 2.17,0.96 5.507,2.868 8.472,6.264 0.349,-0.243 0.698,-0.489 1.064,-0.745 1.545,-1.271 3.188,-2.441 4.912,-3.504 21.971,-15.888 60.268,-46.388 70.187,-66.956 4.418,-9.16 12.301,-14.279 21.838,-14.279 0.681,0 1.371,0.027 2.07,0.076 7.519,0.568 15.494,3.945 22.67,8.832 l -0.143,-0.549 h 104.953 l -0.69,0.897 c 1.443,-0.197 2.927,-0.215 4.468,-0.304 1.624,-0.093 3.211,-0.072 4.774,-0.072 19.144,0 33.627,6.854 46.871,16.181 135.215,10.238 171.039,121.707 154.995,168.31 0,0 -18.412,15.524 -26.09,42.577 1.115,6.678 2.012,13.266 2.668,19.701 12.689,-39.028 36.762,-78.992 28.133,-39.298 -11.777,54.175 63.598,43.578 55.353,133.086"
           style="fill:#231f20;fill-opacity:1;fill-rule:nonzero;stroke:none"
           id="path1126"
           inkscape:connector-curvature="0" /></g></g></g></svg>